<mxfile host="app.diagrams.net" modified="2024-03-12T11:49:18.260Z" agent="Mozilla/5.0 (Macintosh; Intel Mac OS X 10_15_7) AppleWebKit/537.36 (KHTML, like Gecko) Chrome/122.0.0.0 Safari/537.36" etag="kxR_HRKRUw5vJW-kvIUe" version="24.0.5" type="github">
  <diagram name="Page-1" id="d5a40nvXoYDpKXoHGJCn">
    <mxGraphModel dx="1383" dy="761" grid="1" gridSize="10" guides="1" tooltips="1" connect="1" arrows="1" fold="1" page="1" pageScale="1" pageWidth="850" pageHeight="1100" math="0" shadow="0">
      <root>
        <mxCell id="0" />
        <mxCell id="1" parent="0" />
        <mxCell id="bBbaTVvFp7HSZljtS9kW-3" value="" style="edgeStyle=orthogonalEdgeStyle;rounded=0;orthogonalLoop=1;jettySize=auto;html=1;" edge="1" parent="1" source="bBbaTVvFp7HSZljtS9kW-1" target="bBbaTVvFp7HSZljtS9kW-2">
          <mxGeometry relative="1" as="geometry" />
        </mxCell>
        <mxCell id="bBbaTVvFp7HSZljtS9kW-1" value="Start" style="ellipse;whiteSpace=wrap;html=1;" vertex="1" parent="1">
          <mxGeometry x="360" y="350" width="120" height="80" as="geometry" />
        </mxCell>
        <mxCell id="bBbaTVvFp7HSZljtS9kW-7" style="edgeStyle=orthogonalEdgeStyle;rounded=0;orthogonalLoop=1;jettySize=auto;html=1;" edge="1" parent="1" source="bBbaTVvFp7HSZljtS9kW-2" target="bBbaTVvFp7HSZljtS9kW-4">
          <mxGeometry relative="1" as="geometry" />
        </mxCell>
        <mxCell id="bBbaTVvFp7HSZljtS9kW-8" value="No" style="edgeLabel;html=1;align=center;verticalAlign=middle;resizable=0;points=[];" vertex="1" connectable="0" parent="bBbaTVvFp7HSZljtS9kW-7">
          <mxGeometry x="0.0615" relative="1" as="geometry">
            <mxPoint as="offset" />
          </mxGeometry>
        </mxCell>
        <mxCell id="bBbaTVvFp7HSZljtS9kW-10" style="edgeStyle=orthogonalEdgeStyle;rounded=0;orthogonalLoop=1;jettySize=auto;html=1;entryX=0.5;entryY=0;entryDx=0;entryDy=0;" edge="1" parent="1" source="bBbaTVvFp7HSZljtS9kW-2" target="bBbaTVvFp7HSZljtS9kW-9">
          <mxGeometry relative="1" as="geometry" />
        </mxCell>
        <mxCell id="bBbaTVvFp7HSZljtS9kW-11" value="Yes" style="edgeLabel;html=1;align=center;verticalAlign=middle;resizable=0;points=[];" vertex="1" connectable="0" parent="bBbaTVvFp7HSZljtS9kW-10">
          <mxGeometry x="0.0333" y="3" relative="1" as="geometry">
            <mxPoint as="offset" />
          </mxGeometry>
        </mxCell>
        <mxCell id="bBbaTVvFp7HSZljtS9kW-2" value="Decision" style="rhombus;whiteSpace=wrap;html=1;" vertex="1" parent="1">
          <mxGeometry x="380" y="510" width="80" height="80" as="geometry" />
        </mxCell>
        <mxCell id="bBbaTVvFp7HSZljtS9kW-4" value="Process if the answer is no." style="rounded=0;whiteSpace=wrap;html=1;" vertex="1" parent="1">
          <mxGeometry x="590" y="520" width="120" height="60" as="geometry" />
        </mxCell>
        <mxCell id="bBbaTVvFp7HSZljtS9kW-9" value="Process if the answer is yes." style="rounded=0;whiteSpace=wrap;html=1;" vertex="1" parent="1">
          <mxGeometry x="360" y="710" width="120" height="60" as="geometry" />
        </mxCell>
      </root>
    </mxGraphModel>
  </diagram>
</mxfile>
